<svg width="250" height="55" viewBox="0 0 250 55" fill="none" xmlns="http://www.w3.org/2000/svg">
<g clip-path="url(#clip0_6_60)">
<path d="M13.6694 55C9.31466 55.1146 5.04188 53.7913 1.5003 51.2313C0.28339 50.2218 0.0500105 49.4479 0.716811 48.2197C1.18357 47.3448 1.60032 46.4362 2.03374 45.5782C2.80056 44.0303 3.53404 43.7611 5.05101 44.6696C7.84763 46.4453 11.0997 47.3522 14.4029 47.2775C19.754 47.1092 21.771 43.7443 21.671 39.1511C20.6964 40.1644 19.5139 40.95 18.2065 41.4529C16.899 41.9557 15.4983 42.1635 14.1028 42.0618C11.1083 42.0199 8.19886 41.0509 5.76782 39.2857C3.60508 37.728 1.93185 35.5753 0.947607 33.0844C-0.0366327 30.5935 -0.290348 27.8695 0.216711 25.2371C0.521636 22.3205 1.69949 19.5669 3.59349 17.3428C5.48748 15.1186 8.00776 13.5294 10.8188 12.7868C12.8166 12.1387 14.9554 12.0744 16.9878 12.6014C19.0203 13.1284 20.8635 14.2251 22.3045 15.7648C22.3045 14.4356 22.4045 13.5944 22.9546 13.1569C23.7945 12.7933 24.7131 12.6542 25.6218 12.7532C29.8893 12.7532 29.7893 12.5849 29.756 15.5629C29.756 21.7544 29.756 30.7051 29.756 36.8125C29.756 44.8715 27.2388 55 13.6694 55ZM22.0044 27.458C22.0777 26.4833 21.9512 25.5039 21.633 24.5808C21.3147 23.6576 20.8115 22.8105 20.1546 22.0923C19.4977 21.3741 18.7013 20.8001 17.815 20.4062C16.9287 20.0123 15.9714 19.8068 15.003 19.8027C14.0128 19.7543 13.0237 19.9192 12.1016 20.2865C11.1794 20.6537 10.3453 21.2149 9.6546 21.9327C8.96393 22.6504 8.43256 23.5084 8.09582 24.4494C7.75907 25.3905 7.62467 26.3931 7.70154 27.3907C7.70154 32.3203 10.7855 35.0964 14.9697 35.13C15.9418 35.1336 16.9041 34.9329 17.7952 34.5405C18.6863 34.1481 19.4866 33.5727 20.1453 32.851C20.8039 32.1293 21.3064 31.277 21.6208 30.3485C21.9351 29.42 22.0544 28.4356 21.9711 27.458H22.0044Z" fill="url(#paint0_linear_6_60)"/>
<path d="M220.994 52.8969C219.977 52.3585 220.277 51.2145 220.761 50.3564C220.928 50.0199 221.128 49.6834 221.328 49.3469C222.695 46.6718 222.695 46.6381 225.512 47.3111C226.291 47.582 227.14 47.5611 227.906 47.2522C228.671 46.9433 229.3 46.3671 229.679 45.6287C230.581 44.1944 231.362 42.686 232.013 41.1196C232.013 41.1196 224.378 23.5546 220.894 15.4788C219.911 13.2074 220.011 13.0728 222.428 13.0728C223.978 13.0728 225.512 13.0728 227.062 13.0728C227.523 13.0106 227.991 13.1245 228.373 13.3922C228.756 13.6598 229.025 14.062 229.129 14.5198C231.18 19.8027 235.63 31.3445 235.63 31.3445C236.481 28.8376 237.447 26.2971 238.248 24.0089C239.331 20.8627 240.498 17.7501 241.582 14.5702C241.675 14.0529 241.968 13.594 242.396 13.2943C242.824 12.9947 243.353 12.8787 243.865 12.9719C245.282 13.0728 246.716 12.9719 248.166 12.9719C250.133 12.9719 250.467 13.5103 249.733 15.3442C248.066 19.8027 246.216 24.2781 244.432 28.8039C242.232 34.3225 239.431 41.0523 237.264 46.5372C235.897 49.9021 232.63 54.815 227.262 54.815C225.015 54.9354 222.797 54.2566 220.994 52.8969Z" fill="url(#paint1_linear_6_60)"/>
<path d="M85.7671 15.3778C87.8297 13.4378 90.5329 12.3405 93.352 12.2989C95.4782 12.3028 97.5746 12.8029 99.4775 13.7602C101.38 14.7176 103.038 16.1061 104.321 17.8174C108.438 22.8648 108.472 32.7914 103.921 37.7715C102.816 39.1581 101.443 40.3024 99.8844 41.1345C98.3262 41.9666 96.6161 42.4689 94.8588 42.6106C93.1016 42.7524 91.3342 42.5306 89.6648 41.9589C87.9954 41.3872 86.4593 40.4776 85.1504 39.2857C84.9503 39.1175 85.1504 40.9682 84.7503 41.4898C84.2668 42.432 78.6491 42.3647 78.0823 41.4898C77.8596 41.054 77.756 40.5661 77.7822 40.0765C77.7822 27.7271 77.7822 15.0077 77.7822 2.65832C77.7822 1.16092 78.4323 0.555229 79.866 0.588879C81.2996 0.622528 82.2831 0.689827 83.5167 0.588879C85.1837 0.588879 85.6338 1.29552 85.6338 2.79292C85.6671 6.41023 85.7338 15.2432 85.7671 15.3778ZM92.6018 19.8364C88.6177 19.8364 85.5671 22.8143 85.4671 27.458C85.3937 28.4443 85.522 29.4354 85.844 30.3696C86.1659 31.3038 86.6747 32.1613 87.3387 32.8888C88.0027 33.6162 88.8078 34.1982 89.704 34.5986C90.6002 34.9989 91.5683 35.2091 92.5483 35.216C93.5283 35.2229 94.4993 35.0265 95.4009 34.6389C96.3026 34.2512 97.1157 33.6807 97.7897 32.9627C98.4638 32.2447 98.9844 31.3945 99.3193 30.4649C99.6542 29.5353 99.7963 28.5462 99.7366 27.5589C99.8128 26.5692 99.6845 25.5743 99.3598 24.6373C99.0351 23.7003 98.5211 22.8415 97.8503 22.1155C97.1796 21.3895 96.3667 20.812 95.4632 20.4197C94.5597 20.0273 93.5854 19.8287 92.6018 19.8364Z" fill="url(#paint2_linear_6_60)"/>
<path d="M151.597 39.5381C151.597 43.6938 151.597 47.513 151.597 51.3154C151.597 54.1251 151.597 54.1251 148.713 54.1251C147.713 54.1251 146.713 54.1251 145.729 54.1251C144.429 54.1251 144.062 53.5194 144.062 52.3081V14.7721C144.062 13.5439 144.529 12.9046 145.829 13.0896C146.646 13.0896 148.146 13.0896 148.98 13.0896C151.264 13.0896 151.13 13.7626 151.13 15.9667C159.115 8.31141 170.901 14.0655 173.018 23.8743C173.881 27.2353 173.59 30.7925 172.191 33.9646C170.792 37.1367 168.369 39.7362 165.316 41.3383C163.457 42.3504 161.358 42.8246 159.249 42.7089C157.14 42.5931 155.103 41.8917 153.364 40.6822C152.814 40.3793 152.397 40.0428 151.597 39.5381ZM151.464 27.4243C151.403 28.4161 151.542 29.4101 151.872 30.3463C152.202 31.2824 152.717 32.1412 153.386 32.8709C154.054 33.6005 154.862 34.1859 155.761 34.5915C156.66 34.9971 157.631 35.2147 158.615 35.231C159.605 35.2457 160.587 35.0518 161.498 34.6617C162.41 34.2717 163.231 33.694 163.908 32.9657C164.586 32.2373 165.106 31.3743 165.434 30.4317C165.763 29.4892 165.893 28.4878 165.817 27.4916C165.817 23.1508 163.466 20.0046 158.948 19.8363C157.948 19.7799 156.947 19.9378 156.011 20.2996C155.076 20.6614 154.226 21.219 153.52 21.9357C152.813 22.6524 152.264 23.512 151.91 24.4579C151.555 25.4039 151.403 26.4148 151.464 27.4243Z" fill="url(#paint3_linear_6_60)"/>
<path d="M210.259 15.7143C210.625 13.0055 210.259 12.9719 213.209 13.0055C214.109 13.0055 214.876 13.0055 215.86 13.0055C217.343 12.8373 217.81 13.6785 217.81 14.974V40.0765C217.81 41.4898 217.21 42.2637 215.693 42.1291C214.926 42.1291 214.126 42.1291 213.376 42.1291C210.725 42.1291 210.192 42.1291 210.192 39.1848C209.222 40.2702 208.04 41.1414 206.72 41.7437C205.401 42.3459 203.972 42.6662 202.524 42.6843C200.933 42.7825 199.339 42.5575 197.836 42.0229C196.332 41.4883 194.951 40.6548 193.772 39.5718C191.923 38.0135 190.458 36.0426 189.493 33.8148C188.528 31.5869 188.09 29.1631 188.213 26.7349C188.336 24.3068 189.017 21.9407 190.201 19.8236C191.386 17.7066 193.042 15.8965 195.039 14.5366C197.087 13.0756 199.547 12.3193 202.054 12.3799C204.561 12.4405 206.982 13.3148 208.958 14.8731L210.259 15.7143ZM195.989 27.4916C195.989 32.0511 198.973 35.4329 203.057 35.3319C204.047 35.33 205.025 35.1224 205.932 34.7219C206.838 34.3214 207.653 33.7366 208.326 33.0041C208.998 32.2716 209.514 31.407 209.841 30.4644C210.168 29.5217 210.299 28.5212 210.225 27.5253C210.27 26.5344 210.117 25.5446 209.774 24.6149C209.432 23.6852 208.908 22.8346 208.232 22.1138C207.557 21.3931 206.745 20.8171 205.844 20.42C204.944 20.0229 203.973 19.813 202.991 19.8027C202.032 19.8284 201.087 20.0473 200.213 20.4464C199.339 20.8455 198.553 21.4168 197.901 22.1268C197.249 22.8368 196.744 23.6711 196.415 24.5808C196.087 25.4905 195.942 26.4573 195.989 27.4243V27.4916Z" fill="url(#paint4_linear_6_60)"/>
<path d="M74.4649 27.4243C74.5114 29.4398 74.1559 31.4442 73.4197 33.3183C72.6834 35.1924 71.5814 36.898 70.1791 38.3337C68.7768 39.7694 67.1029 40.906 65.2567 41.6758C63.4106 42.4457 61.4299 42.8331 59.4325 42.815C57.4351 42.797 55.4616 42.3738 53.6295 41.5708C51.7973 40.7677 50.1437 39.6011 48.7671 38.1402C47.3905 36.6794 46.3189 34.9541 45.6161 33.067C44.9132 31.1799 44.5934 29.1694 44.6756 27.1551C44.7283 23.185 46.336 19.3973 49.1472 16.6199C51.9585 13.8425 55.7448 12.3011 59.6786 12.3325C61.6376 12.321 63.5792 12.7048 65.3892 13.4613C67.1993 14.2177 68.8413 15.3317 70.2187 16.7376C71.5962 18.1436 72.6814 19.8132 73.4106 21.6484C74.1398 23.4836 74.4982 25.4473 74.4649 27.4243ZM66.68 27.7608C66.7433 26.7892 66.6134 25.8146 66.2979 24.8943C65.9825 23.9741 65.4878 23.1269 64.8431 22.4025C64.1984 21.6781 63.4167 21.0911 62.5439 20.6761C61.6711 20.2612 60.7249 20.0266 59.761 19.9862C58.797 19.9458 57.8348 20.1004 56.9309 20.4409C56.027 20.7814 55.1998 21.3009 54.4978 21.9689C53.7958 22.6369 53.2333 23.4398 52.8433 24.3305C52.4534 25.2211 52.2439 26.1815 52.2271 27.1551C52.1525 28.1712 52.2805 29.1922 52.6036 30.1575C52.9267 31.1228 53.4383 32.013 54.1081 32.7753C54.778 33.5376 55.5925 34.1567 56.5034 34.5958C57.4144 35.0349 58.4034 35.2852 59.4119 35.3319C60.3837 35.3233 61.3441 35.1198 62.2373 34.7333C63.1305 34.3468 63.9386 33.785 64.6149 33.0806C65.2911 32.3762 65.8219 31.5431 66.1764 30.6299C66.531 29.7166 66.7021 28.7414 66.68 27.7608Z" fill="url(#paint5_linear_6_60)"/>
<path d="M110.572 27.3906C110.63 23.4193 112.248 19.6336 115.071 16.8665C117.894 14.0993 121.69 12.5773 125.625 12.6354C129.56 12.6934 133.311 14.3266 136.052 17.1758C138.794 20.025 140.302 23.8567 140.245 27.8281C140.216 29.7945 139.804 31.736 139.032 33.5417C138.261 35.3475 137.144 36.9821 135.746 38.3522C134.348 39.7224 132.697 40.8012 130.886 41.5272C129.075 42.2532 127.14 42.6121 125.192 42.5834C121.257 42.5253 117.506 40.8921 114.764 38.0429C112.023 35.1937 110.515 31.362 110.572 27.3906ZM132.593 27.3906C132.648 26.3825 132.492 25.374 132.137 24.43C131.783 23.4861 131.236 22.6276 130.532 21.9097C129.829 21.1918 128.984 20.6305 128.053 20.2618C127.122 19.8931 126.124 19.7253 125.125 19.769C124.114 19.8111 123.123 20.0628 122.213 20.5083C121.303 20.9539 120.494 21.5837 119.835 22.3587C119.177 23.1336 118.684 24.0371 118.386 25.0128C118.089 25.9885 117.994 27.0155 118.107 28.03C118.163 29.9923 118.978 31.8544 120.377 33.2188C121.775 34.5832 123.647 35.3415 125.592 35.3319C126.572 35.2939 127.534 35.0571 128.421 34.6356C129.309 34.2141 130.103 33.6165 130.756 32.8784C131.409 32.1404 131.909 31.2771 132.225 30.3401C132.54 29.403 132.666 28.4113 132.593 27.4243V27.3906Z" fill="url(#paint6_linear_6_60)"/>
<path d="M184.687 21.5356C184.687 27.7271 184.687 33.9523 184.687 40.1438C184.687 41.5907 184.153 42.1627 182.77 42.0954C181.554 42.0281 180.335 42.0281 179.119 42.0954C177.452 42.1964 176.935 41.4225 176.935 39.9082V3.36494C176.935 1.26185 177.219 0.959003 179.286 0.925354C180.436 0.925354 181.603 0.925354 182.77 0.925354C184.187 0.925354 184.687 1.49739 184.687 2.89385C184.654 9.11899 184.687 15.3441 184.687 21.5356Z" fill="url(#paint7_linear_6_60)"/>
<path d="M33.5067 21.502V2.38915C33.5067 0.117812 34.4069 -0.656125 37.1908 0.588904C40.4081 2.00218 41.2416 2.27138 41.2416 4.98016C41.2416 15.3105 41.2416 26.8523 41.1416 37.4687C41.1416 39.5381 41.2416 40.4467 38.7077 41.5907C38.191 41.8263 37.1574 42.3647 36.3906 42.6507C34.8736 43.29 33.4734 42.6507 33.5067 40.413C33.5067 35.9376 33.5067 31.4454 33.5067 26.9532C33.4734 25.2371 33.4734 23.3527 33.5067 21.502Z" fill="url(#paint8_linear_6_60)"/>
</g>
<defs>
<linearGradient id="paint0_linear_6_60" x1="3.63406" y1="33.6326" x2="242.665" y2="33.6326" gradientUnits="userSpaceOnUse">
<stop offset="0.12" stop-color="#FE012F"/>
<stop offset="0.95" stop-color="#FE8E04"/>
</linearGradient>
<linearGradient id="paint1_linear_6_60" x1="3.83406" y1="33.9018" x2="243.132" y2="33.9018" gradientUnits="userSpaceOnUse">
<stop offset="0.12" stop-color="#FE012F"/>
<stop offset="0.95" stop-color="#FE8E04"/>
</linearGradient>
<linearGradient id="paint2_linear_6_60" x1="4.63425" y1="21.5861" x2="241.698" y2="21.5861" gradientUnits="userSpaceOnUse">
<stop offset="0.12" stop-color="#FE012F"/>
<stop offset="0.95" stop-color="#FE8E04"/>
</linearGradient>
<linearGradient id="paint3_linear_6_60" x1="4.48421" y1="33.2288" x2="242.632" y2="33.2288" gradientUnits="userSpaceOnUse">
<stop offset="0.12" stop-color="#FE012F"/>
<stop offset="0.95" stop-color="#FE8E04"/>
</linearGradient>
<linearGradient id="paint4_linear_6_60" x1="4.5342" y1="27.5253" x2="242.715" y2="27.5253" gradientUnits="userSpaceOnUse">
<stop offset="0.12" stop-color="#FE012F"/>
<stop offset="0.95" stop-color="#FE8E04"/>
</linearGradient>
<linearGradient id="paint5_linear_6_60" x1="3.65073" y1="27.5084" x2="242.982" y2="27.5084" gradientUnits="userSpaceOnUse">
<stop offset="0.12" stop-color="#FE012F"/>
<stop offset="0.95" stop-color="#FE8E04"/>
</linearGradient>
<linearGradient id="paint6_linear_6_60" x1="3.65075" y1="27.4748" x2="242.982" y2="27.4748" gradientUnits="userSpaceOnUse">
<stop offset="0.12" stop-color="#FE012F"/>
<stop offset="0.95" stop-color="#FE8E04"/>
</linearGradient>
<linearGradient id="paint7_linear_6_60" x1="12.7025" y1="21.502" x2="239.898" y2="21.502" gradientUnits="userSpaceOnUse">
<stop offset="0.12" stop-color="#FE012F"/>
<stop offset="0.95" stop-color="#FE8E04"/>
</linearGradient>
<linearGradient id="paint8_linear_6_60" x1="4.86764" y1="21.4347" x2="236.381" y2="21.4347" gradientUnits="userSpaceOnUse">
<stop offset="0.12" stop-color="#FE012F"/>
<stop offset="0.95" stop-color="#FE8E04"/>
</linearGradient>
<clipPath id="clip0_6_60">
<rect width="250" height="55" fill="white"/>
</clipPath>
</defs>
</svg>
